<?xml version="1.0" encoding="UTF-8" standalone="no"?>
<!DOCTYPE svg PUBLIC "-//W3C//DTD SVG 20010904//EN"
              "http://www.w3.org/TR/2001/REC-SVG-20010904/DTD/svg10.dtd">

<svg xmlns="http://www.w3.org/2000/svg"
     width="9.70833in" height="9.70833in"
     viewBox="0 0 699 699">
  <path id="UpperBody"
        fill="#ffffff" stroke="black" stroke-width="1"
        d="M 336.00,187.00
           C 336.00,187.00 345.00,185.00 345.00,185.00
             335.75,191.33 327.03,189.93 320.78,201.00
             318.37,205.58 317.34,209.39 320.78,213.91
             322.16,215.97 325.03,218.27 327.00,220.00
             322.83,217.77 311.79,212.49 312.45,207.00
             312.79,204.08 317.23,198.66 319.00,196.00
             311.79,196.00 310.17,195.71 303.00,197.64
             290.48,201.02 277.06,210.34 278.33,225.00
             278.33,225.00 281.17,237.00 281.17,237.00
             281.17,237.00 280.00,250.00 280.00,250.00
             280.00,250.00 280.00,270.00 280.00,270.00
             280.05,300.42 290.90,330.79 301.32,359.00
             306.61,373.32 316.41,397.88 324.90,410.00
             328.48,415.10 337.11,421.50 341.91,426.17
             341.91,426.17 352.17,437.91 352.17,437.91
             356.81,442.72 359.00,443.28 362.10,450.00
             367.59,461.91 368.99,474.84 376.01,487.00
             383.13,499.32 394.72,508.63 400.07,522.00
             402.19,527.30 405.21,540.16 405.84,546.00
             406.50,552.19 406.85,559.99 411.39,564.77
             418.39,572.16 437.66,566.06 436.96,550.00
             436.55,540.60 431.90,537.10 427.25,530.00
             424.97,526.52 422.48,520.04 421.19,516.00
             418.31,506.98 418.91,502.58 417.39,494.00
             415.41,482.85 412.33,471.81 408.98,461.00
             408.98,461.00 402.19,442.00 402.19,442.00
             402.19,442.00 396.17,431.00 396.17,431.00
             396.17,431.00 392.53,420.00 392.53,420.00
             388.38,409.85 385.94,414.14 386.00,401.00
             386.00,401.00 386.96,386.00 386.96,386.00
             386.59,376.45 382.50,366.75 379.00,358.00
             379.00,358.00 403.00,358.00 403.00,358.00
             403.00,381.45 409.54,411.73 430.00,426.06
             436.27,430.45 456.61,431.27 465.00,432.16
             465.00,432.16 501.00,435.99 501.00,435.99
             513.44,436.27 521.49,430.62 529.99,422.00
             543.45,408.34 552.83,382.15 553.00,363.00
             553.00,363.00 571.00,364.21 571.00,364.21
             574.02,364.46 577.01,365.39 579.98,364.21
             587.74,361.30 588.10,347.05 581.89,342.74
             577.68,339.81 559.89,341.00 554.00,341.00
             553.92,315.60 543.59,284.95 520.00,272.32
             506.87,265.30 496.81,268.90 483.00,269.91
             483.00,269.91 461.00,271.91 461.00,271.91
             455.68,272.28 447.90,272.36 443.00,274.35
             418.97,284.11 405.13,316.44 404.00,341.00
             404.00,341.00 391.00,342.00 391.00,342.00
             391.00,342.00 371.00,343.00 371.00,343.00
             370.03,339.94 366.16,333.40 366.31,331.42
             366.49,328.95 370.39,324.88 372.00,323.00
             376.28,318.02 381.90,311.88 384.67,306.00
             389.46,295.86 386.37,290.90 391.94,283.00
             399.29,272.58 418.03,263.94 408.58,245.00
             407.12,242.09 405.02,239.53 403.00,237.00
             403.00,237.00 410.00,240.00 410.00,240.00
             412.20,234.88 415.11,229.77 414.79,224.00
             413.81,206.18 395.65,190.71 378.00,195.00
             378.00,195.00 374.58,188.91 374.58,188.91
             373.99,187.23 373.02,175.69 373.44,174.04
             374.47,170.05 377.47,169.34 380.09,164.00
             381.04,162.04 382.37,158.15 382.64,156.00
             383.25,151.06 381.60,137.52 379.18,133.01
             372.01,119.71 345.98,120.36 336.18,130.18
             330.79,135.58 332.50,137.55 330.64,143.00
             328.26,149.98 325.24,156.59 324.29,164.00
             322.22,180.10 335.11,171.92 336.00,187.00 Z
           M 347.00,184.00
           C 347.00,184.00 347.00,185.00 347.00,185.00
             347.00,185.00 346.00,184.00 346.00,184.00
             346.00,184.00 347.00,184.00 347.00,184.00 Z
           M 332.00,222.00
           C 332.00,222.00 332.00,223.00 332.00,223.00
             332.00,223.00 331.00,222.00 331.00,222.00
             331.00,222.00 332.00,222.00 332.00,222.00 Z
           M 334.00,223.00
           C 334.00,223.00 334.00,224.00 334.00,224.00
             334.00,224.00 333.00,223.00 333.00,223.00
             333.00,223.00 334.00,223.00 334.00,223.00 Z
           M 373.00,226.00
           C 373.00,226.00 373.00,227.00 373.00,227.00
             373.00,227.00 372.00,226.00 372.00,226.00
             372.00,226.00 373.00,226.00 373.00,226.00 Z
           M 372.00,227.00
           C 372.00,227.00 372.00,228.00 372.00,228.00
             372.00,228.00 371.00,227.00 371.00,227.00
             371.00,227.00 372.00,227.00 372.00,227.00 Z
           M 371.00,228.00
           C 371.00,228.00 365.95,238.00 365.95,238.00
             363.09,245.45 362.22,258.93 368.00,265.00
             368.00,265.00 353.47,290.00 353.47,290.00
             353.47,290.00 351.91,305.00 351.91,305.00
             351.91,305.00 349.95,319.00 349.95,319.00
             348.06,314.10 349.68,310.90 349.95,306.00
             350.19,299.44 346.95,293.90 351.35,284.00
             351.35,284.00 360.33,269.00 360.33,269.00
             361.06,266.31 359.32,257.39 359.09,254.00
             358.30,242.35 361.38,234.91 371.00,228.00 Z
           M 403.00,236.00
           C 403.00,236.00 403.00,237.00 403.00,237.00
             403.00,237.00 402.00,236.00 402.00,236.00
             402.00,236.00 403.00,236.00 403.00,236.00 Z
           M 504.00,290.00
           C 498.10,296.23 495.34,298.07 490.87,306.00
             478.31,328.28 476.32,368.20 485.46,392.00
             489.53,402.60 492.19,404.32 498.00,413.00
             487.81,408.18 482.65,396.36 479.88,386.00
             473.97,363.82 474.67,339.85 481.74,318.00
             485.14,307.52 492.51,292.85 504.00,290.00 Z
           M 517.00,329.00
           C 514.81,331.60 512.41,333.89 510.92,337.00
             506.80,345.64 507.80,359.49 518.00,363.00
             511.86,366.86 508.12,361.67 506.49,356.00
             503.83,346.69 505.40,330.88 517.00,329.00 Z
           M 502.00,414.00
           C 502.00,414.00 502.00,415.00 502.00,415.00
             502.00,415.00 501.00,414.00 501.00,414.00
             501.00,414.00 502.00,414.00 502.00,414.00 Z" />
    <path id="LowerBody"
        fill="#e57373" stroke="black" stroke-width="1"
        d="M 272.00,243.00
           C 272.00,243.00 263.30,264.00 263.30,264.00
             263.30,264.00 258.38,270.00 258.38,270.00
             258.38,270.00 253.07,278.00 253.07,278.00
             248.66,284.07 245.37,286.73 241.49,294.00
             241.49,294.00 230.58,324.00 230.58,324.00
             225.99,334.94 219.04,345.92 219.00,358.00
             219.00,358.00 201.00,360.00 201.00,360.00
             199.62,351.06 193.91,339.66 187.83,333.01
             180.30,324.78 171.20,320.14 160.00,320.00
             149.18,319.88 147.49,320.26 137.00,322.58
             132.34,323.60 125.15,324.95 121.00,326.99
             109.98,332.43 101.16,344.48 97.36,356.00
             90.47,376.92 94.52,406.77 110.04,423.00
             117.84,431.16 124.43,435.86 136.00,436.00
             145.41,436.11 167.64,434.33 176.00,430.91
             190.88,424.81 199.88,409.23 202.74,394.00
             203.51,389.92 203.81,375.50 205.60,373.74
             207.20,372.16 210.82,371.76 213.00,371.42
             220.02,370.33 226.88,372.00 234.00,372.00
             228.78,385.58 230.17,389.67 228.83,403.00
             228.14,409.87 226.07,412.72 225.33,417.00
             225.33,417.00 224.57,429.00 224.57,429.00
             224.57,429.00 218.42,457.00 218.42,457.00
             218.42,457.00 212.73,489.00 212.73,489.00
             212.31,491.91 211.15,502.76 209.98,504.62
             206.94,509.45 200.30,508.50 200.42,518.00
             200.61,532.50 180.67,534.28 171.00,540.91
             169.64,541.85 168.33,542.87 167.23,544.10
             159.33,552.88 171.36,552.99 177.00,553.00
             177.00,553.00 198.00,553.00 198.00,553.00
             198.00,553.00 219.00,551.08 219.00,551.08
             222.21,550.54 226.18,550.00 228.57,547.57
             232.34,543.74 230.23,538.62 229.92,534.00
             229.70,530.72 230.93,518.02 231.79,515.00
             231.79,515.00 256.13,471.00 256.13,471.00
             260.77,460.16 259.98,453.29 260.00,442.00
             260.00,438.92 259.90,435.99 260.80,433.00
             263.79,423.08 279.59,409.90 286.91,402.00
             290.49,398.14 298.42,388.27 298.61,383.00
             298.69,380.50 296.90,375.62 296.14,373.00
             296.14,373.00 289.63,351.00 289.63,351.00
             283.40,327.09 276.13,298.67 275.00,274.00
             275.00,274.00 270.00,293.00 270.00,293.00
             266.98,278.10 279.36,258.96 272.00,243.00 Z
           M 160.00,335.00
           C 160.00,335.00 160.00,336.00 160.00,336.00
             160.00,336.00 159.00,335.00 159.00,335.00
             159.00,335.00 160.00,335.00 160.00,335.00 Z
           M 158.00,336.00
           C 158.00,336.00 158.00,337.00 158.00,337.00
             158.00,337.00 157.00,336.00 157.00,336.00
             157.00,336.00 158.00,336.00 158.00,336.00 Z
           M 154.00,339.00
           C 150.76,344.64 147.96,347.63 145.46,354.00
             140.64,366.32 140.86,382.92 146.31,395.00
             150.47,404.22 152.78,404.68 158.00,412.00
             139.55,404.12 135.99,375.16 140.91,358.00
             143.02,350.64 146.84,342.46 154.00,339.00 Z
           M 246.00,339.00
           C 253.89,345.00 252.47,348.58 245.00,354.00
             245.00,354.00 246.00,339.00 246.00,339.00 Z
           M 173.00,361.00
           C 173.00,361.00 173.00,362.00 173.00,362.00
             173.00,362.00 172.00,361.00 172.00,361.00
             172.00,361.00 173.00,361.00 173.00,361.00 Z
           M 172.00,362.00
           C 172.00,362.00 172.00,363.00 172.00,363.00
             172.00,363.00 171.00,362.00 171.00,362.00
             171.00,362.00 172.00,362.00 172.00,362.00 Z
           M 171.00,363.00
           C 169.18,376.79 170.30,372.53 176.00,383.00
             168.01,380.11 165.87,369.41 171.00,363.00 Z
           M 235.00,371.00
           C 235.00,371.00 235.00,372.00 235.00,372.00
             235.00,372.00 234.00,371.00 234.00,371.00
             234.00,371.00 235.00,371.00 235.00,371.00 Z
           M 164.00,414.00
           C 164.00,414.00 164.00,415.00 164.00,415.00
             164.00,415.00 163.00,414.00 163.00,414.00
             163.00,414.00 164.00,414.00 164.00,414.00 Z" />
</svg>
